<svg xmlns="http://www.w3.org/2000/svg" width="1000" height="1000" viewBox="-96.57 -1121.55 1219.10 1219.10">
  <title>BRUSH (U+F444)</title>
  <g transform="scale(1,-1)">
    <path fill="#000000" d="M988 741 594 348Q596 337 596 320Q595 207 523.5 135.5Q452 64 340 64H33Q23 64 14.5 70.0Q6 76 3 86Q-4 107 13 121Q16 123 22.0 129.0Q28 135 39.5 152.0Q51 169 60.0 190.0Q69 211 76.5 246.0Q84 281 84 320Q84 398 115.0 456.0Q146 514 203.5 545.0Q261 576 340 576Q389 576 438 555L806 923Q844 960 897.0 960.0Q950 960 987.5 922.5Q1025 885 1025.0 832.0Q1025 779 988 741ZM340 128Q425 128 473.5 175.5Q522 223 530 294Q532 308 532 320Q532 363 516 399Q503 428 479 452Q467 464 450 476Q422 495 389 505Q363 512 340 512Q315 512 292.0 508.0Q269 504 241.5 492.0Q214 480 194.0 460.0Q174 440 161.0 404.0Q148 368 148 320Q148 208 100 128ZM942 787Q961 806 961.0 832.5Q961 859 942.5 877.5Q924 896 897.5 896.0Q871 896 852 877L496 521Q510 511 524 497Q559 463 576 420Z"/>
  </g>
</svg>
