<svg xmlns="http://www.w3.org/2000/svg" width="1000" height="1000" viewBox="22.71 -1006.29 978.57 978.57">
  <title>U+F326 (U+F326)</title>
  <g transform="scale(1,-1)">
    <path fill="#000000" d="M642 234Q655 234 664.5 224.5Q674 215 674 202Q674 193 670 186Q661 170 642 170Q633 170 626 174Q610 183 610 202Q610 210 614 218Q623 234 642 234ZM753 170H752Q761 170 768 165Q784 156 784 138Q784 129 780 122Q771 106 752 106Q743 106 736 110Q721 119 721 137Q721 146 725 154Q734 169 753 170ZM382 864Q391 864 398 860Q414 850 414 832Q414 823 410 816Q401 800 382 800Q369 800 359.5 809.5Q350 819 350.0 832.0Q350 845 359.5 854.5Q369 864 382 864ZM271 928H272Q280 928 288 924Q303 914 303 896Q303 888 299 880Q290 864 271 864Q263 864 256 868Q240 877 240 896Q240 909 249.0 918.5Q258 928 271 928Z"/>
  </g>
</svg>
